<?xml version="1.0" ?><svg xmlns="http://www.w3.org/2000/svg" xmlns:xlink="http://www.w3.org/1999/xlink" version="1.1" viewBox="0 0 512 512" style="enable-background:new 0 0 512 512;" xml:space="preserve"><g id="_x31_3_x2C__necklace_x2C__accessory_x2C__jewel_x2C__jewelry_x2C__fashion_x2C__diy"><g><g><path style="fill:#283954;" d="M278.788,67.279c8.77,2.38,17.389,5.436,25.725,9.14c5.046,2.239,10.954-0.025,13.199-5.078     c2.242-5.047-0.031-10.956-5.078-13.199c-10.106-4.49-20.592-8.118-31.263-10.855C279.462,21.446,257.843,1,231.523,1     s-47.939,20.446-49.848,46.287c-10.671,2.737-21.157,6.365-31.263,10.855c-5.047,2.243-7.32,8.152-5.078,13.199     c2.226,5.01,8.114,7.337,13.199,5.078c8.334-3.704,16.954-6.76,25.725-9.14c6.77,19.6,25.393,33.721,47.265,33.721     S272.018,86.879,278.788,67.279z M231.523,81c-16.835,0-30-13.77-30-30c0-16.542,13.458-30,30-30     c17.781,0,31.705,15.456,29.835,33.143C259.782,69.213,247.004,81,231.523,81z"/><path style="fill:#283954;" d="M385.691,368.381c7.028-8.491,13.38-17.575,18.912-27.112c2.771-4.777,1.146-10.896-3.631-13.668     c-4.778-2.772-10.897-1.145-13.668,3.631c-4.568,7.873-9.75,15.406-15.456,22.496c-16.994-11.889-40.307-12.346-58.035,0.535     c-17.695,12.856-24.46,35.229-18.416,55.064c-8.531,3.24-17.297,5.828-26.17,7.711c-5.402,1.146-8.853,6.455-7.706,11.858     c1.142,5.381,6.434,8.856,11.858,7.706c10.766-2.285,21.385-5.51,31.68-9.583c16.769,19.849,46.198,23.645,67.532,8.144     C393.951,419.646,399.404,390.451,385.691,368.381z M360.836,418.984c-13.442,9.765-32.176,6.75-41.903-6.638     c-9.71-13.366-6.82-32.125,6.637-41.904c13.431-9.758,32.172-6.758,41.904,6.638     C377.222,390.497,374.248,409.239,360.836,418.984z"/><path style="fill:#283954;" d="M364.672,197.737c6.765,20.821,25.942,34.13,46.636,34.529c0.436,9.104,0.196,18.247-0.732,27.304     c-0.563,5.494,3.435,10.404,8.929,10.968c5.528,0.561,10.407-3.463,10.968-8.929c1.155-11.261,1.313-22.348,0.655-33.049     c24.008-9.79,36.788-36.683,28.651-61.725c-8.136-25.039-34.275-39.281-59.446-33.099c-5.93-9.316-12.625-18.158-19.996-26.346     c-3.695-4.106-10.021-4.438-14.122-0.743c-4.105,3.694-4.438,10.018-0.743,14.122c6.073,6.749,11.643,13.988,16.638,21.599     C365.541,154.856,357.897,176.888,364.672,197.737z M440.756,173.016c5.112,15.732-3.528,32.69-19.261,37.803     c-15.675,5.092-32.673-3.475-37.802-19.262c-5.133-15.793,3.519-32.685,19.261-37.802     C418.69,148.643,435.644,157.284,440.756,173.016z"/><path style="fill:#283954;" d="M193.82,417.038c-8.869-1.882-17.63-4.469-26.156-7.706c6.078-19.846-0.687-42.179-18.43-55.069     c-17.732-12.884-41.042-12.424-58.034-0.535c-5.708-7.092-10.89-14.625-15.455-22.495c-2.771-4.777-8.89-6.403-13.668-3.633     c-4.777,2.771-6.403,8.891-3.633,13.668c5.532,9.535,11.883,18.62,18.913,27.114c-13.715,22.072-8.257,51.266,13.099,66.783     c21.384,15.538,50.866,11.546,67.531-8.145c10.294,4.073,20.914,7.298,31.682,9.583c5.42,1.149,10.715-2.321,11.858-7.706     C202.673,423.493,199.222,418.185,193.82,417.038z M102.211,418.984c-13.415-9.749-16.383-28.491-6.636-41.904     c9.683-13.331,28.412-16.438,41.902-6.638c13.49,9.802,16.325,28.574,6.638,41.904     C134.391,425.73,115.591,428.705,102.211,418.984z"/><path style="fill:#283954;" d="M51.739,232.267c20.698-0.399,39.874-13.715,46.637-34.529     c6.756-20.792-0.911-42.859-17.445-55.358c4.995-7.614,10.568-14.857,16.647-21.611c3.694-4.105,3.361-10.429-0.744-14.123     c-4.104-3.692-10.427-3.36-14.123,0.744c-7.371,8.191-14.065,17.032-19.994,26.345c-25.171-6.185-51.31,8.061-59.447,33.1     c-8.136,25.043,4.645,51.938,28.653,61.726c-0.696,11.322-0.437,22.419,0.653,33.047c0.563,5.486,5.459,9.489,10.968,8.929     c5.494-0.563,9.491-5.474,8.929-10.968C51.543,250.511,51.303,241.369,51.739,232.267z M22.291,173.017     c5.112-15.732,22.069-24.374,37.802-19.262c15.691,5.1,24.386,22.034,19.262,37.803c-5.129,15.791-22.134,24.352-37.803,19.261     h0.001C25.82,205.706,17.179,188.748,22.291,173.017z"/><path style="fill:#283954;" d="M499.186,385.681c-4.366-5.339-21.605-33.362-58.671-60.825c-4.435-3.29-10.7-2.357-13.987,2.081     c-3.288,4.437-2.356,10.699,2.081,13.987c34.55,25.602,50.902,52.179,54.086,56.072c15.936,23.253,8.712,55.197-15.61,69.54     C461.97,457.283,452.112,451,440.812,451h-40c-16.542,0-30,13.458-30,30s13.458,30,30,30h40     c14.294,0,26.277-10.052,29.272-23.456l2.971-1.485c17.84-8.92,30.938-25.112,35.934-44.425     C513.961,422.418,510.389,402.026,499.186,385.681z M440.812,491h-40c-5.514,0-10-4.486-10-10s4.486-10,10-10h40     c5.514,0,10,4.486,10,10S446.326,491,440.812,491z"/></g><g><path style="fill:#3A98FF;" d="M118.081,37.334c-23.51,0.794-43.809,18.074-47.621,42.131     c-4.822,30.452,18.749,57.844,49.49,57.833c10.472,0,20.648-3.286,29.283-9.561c22.36-16.244,27.305-47.484,11.062-69.84     C150.165,43.957,134.129,36.792,118.081,37.334z M137.477,111.558c-13.417,9.747-32.162,6.773-41.902-6.638     c-0.001,0-0.001,0-0.001,0c-4.71-6.482-6.613-14.412-5.36-22.326c2.362-14.91,15.192-25.296,29.591-25.296     c9.284,0,18.447,4.286,24.311,12.355C153.863,83.07,150.89,101.812,137.477,111.558z"/><path style="fill:#3A98FF;" d="M35.371,252.16c-26.22,8.521-40.62,36.784-32.102,63.005c8.538,26.27,36.832,40.604,63.004,32.102     c0,0,0,0,0.001,0c26.221-8.521,40.621-36.784,32.102-63.004C89.856,258.042,61.596,243.644,35.371,252.16z M60.093,328.245     c-15.739,5.111-32.69-3.529-37.803-19.261c-5.111-15.732,3.529-32.69,19.261-37.803c15.714-5.104,32.684,3.507,37.803,19.262     C84.466,306.175,75.826,323.133,60.093,328.245z"/><path style="fill:#3A98FF;" d="M231.523,381c-27.57,0-50,22.43-50,50s22.43,50,50,50s50-22.43,50-50S259.093,381,231.523,381z      M231.523,461c-16.542,0-30-13.458-30-30s13.458-30,30-30s30,13.458,30,30S248.065,461,231.523,461z"/><path style="fill:#3A98FF;" d="M427.674,252.16c-26.223-8.522-54.483,5.883-63.003,32.102     c-8.54,26.286,5.819,54.463,32.103,63.005c26.187,8.51,54.473-5.85,63.003-32.103     C468.297,288.944,453.896,260.681,427.674,252.16z M440.756,308.984c-5.11,15.731-22.063,24.376-37.802,19.261     c-15.771-5.125-24.385-22.033-19.261-37.803c5.122-15.766,22.104-24.362,37.802-19.261     C437.227,276.294,445.868,293.252,440.756,308.984z"/><path style="fill:#3A98FF;" d="M383.653,116.676c16.246-22.359,11.295-53.598-11.062-69.84     c-22.358-16.243-53.598-11.293-69.839,11.062c-16.206,22.304-11.244,53.634,11.061,69.84     C336.121,143.945,367.377,139.08,383.653,116.676z M367.473,104.92c-9.749,13.417-28.491,16.382-41.904,6.638     c-13.415-9.749-16.383-28.49-6.637-41.904c9.766-13.441,28.52-16.36,41.903-6.638C374.252,72.764,377.219,91.507,367.473,104.92z     "/></g></g></g><g id="Layer_1"/></svg>